<svg width="28" height="28" viewBox="0 0 28 28" fill="none" xmlns="http://www.w3.org/2000/svg">
<path d="M19.8333 5.26814C18.1649 4.15132 16.1585 3.5 14 3.5C8.20101 3.5 3.5 8.20101 3.5 14C3.5 19.799 8.20101 24.5 14 24.5C19.799 24.5 24.5 19.799 24.5 14C24.5 12.0875 23.9887 10.2944 23.0953 8.75M19.8333 14C19.8333 17.2217 17.2217 19.8333 14 19.8333C10.7783 19.8333 8.16667 17.2217 8.16667 14C8.16667 10.7783 10.7783 8.16667 14 8.16667C17.2217 8.16667 19.8333 10.7783 19.8333 14Z" stroke="white" stroke-width="1.5" stroke-linecap="round" stroke-linejoin="round"/>
<path d="M15.75 14C15.75 14.9665 14.9665 15.75 14 15.75C13.0335 15.75 12.25 14.9665 12.25 14C12.25 13.0335 13.0335 12.25 14 12.25C14.9665 12.25 15.75 13.0335 15.75 14Z" fill="white"/>
</svg>
