<svg width="20" height="20" viewBox="0 0 20 20" fill="none" xmlns="http://www.w3.org/2000/svg">
<path d="M8.25 2.5C8.25 2.08579 7.91421 1.75 7.5 1.75C7.08579 1.75 6.75 2.08579 6.75 2.5H7.5H8.25ZM13.25 2.5C13.25 2.08579 12.9142 1.75 12.5 1.75C12.0858 1.75 11.75 2.08579 11.75 2.5H12.5H13.25ZM7.5 4.16667H8.25V2.5H7.5H6.75V4.16667H7.5ZM12.5 4.16667H13.25V2.5H12.5H11.75V4.16667H12.5Z" fill="black"/>
<path d="M18.125 10.8337V8.95866C18.125 8.57176 18.125 8.37831 18.1143 8.21498C17.9502 5.71119 15.9558 3.7168 13.452 3.5527C13.2887 3.54199 13.0952 3.54199 12.7083 3.54199H7.29167C6.90477 3.54199 6.71132 3.54199 6.54798 3.5527C4.0442 3.7168 2.04981 5.71119 1.88571 8.21498C1.875 8.37831 1.875 8.57176 1.875 8.95865V10.8337C1.875 12.968 1.875 14.0351 2.19547 14.8866C2.70266 16.2342 3.76617 17.2977 5.11375 17.8049C5.96522 18.1253 7.03237 18.1253 9.16667 18.1253H10.8333C12.9676 18.1253 14.0348 18.1253 14.8863 17.8049C16.2338 17.2977 17.2973 16.2342 17.8045 14.8866C18.125 14.0351 18.125 12.968 18.125 10.8337Z" fill="black"/>
</svg>
