<svg width="18" height="18" viewBox="0 0 18 18" fill="none" xmlns="http://www.w3.org/2000/svg">
<g clip-path="url(#clip0_765_3422)">
<path d="M4.75667 3.69715L3.69617 2.63665C3.40367 2.34377 2.92817 2.34377 2.63567 2.63665C2.3428 2.92952 2.3428 3.40427 2.63567 3.69715L3.69617 4.75765C3.84242 4.90427 4.03442 4.9774 4.22642 4.9774C4.41842 4.9774 4.61042 4.90427 4.75667 4.75765C5.04955 4.46477 5.04955 3.99002 4.75667 3.69715Z" fill="white"/>
<path d="M2.25 8.25H0.75C0.336 8.25 0 8.586 0 9C0 9.414 0.336 9.75 0.75 9.75H2.25C2.664 9.75 3 9.414 3 9C3 8.586 2.664 8.25 2.25 8.25Z" fill="white"/>
<path d="M4.75667 13.2431C4.46417 12.9502 3.98867 12.9502 3.69617 13.2431L2.63567 14.3036C2.3428 14.5965 2.3428 15.0712 2.63567 15.3641C2.78192 15.5107 2.97392 15.5838 3.16592 15.5838C3.35792 15.5838 3.54992 15.5107 3.69617 15.3641L4.75667 14.3036C5.04955 14.0107 5.04955 13.536 4.75667 13.2431Z" fill="white"/>
<path d="M9 15C8.586 15 8.25 15.336 8.25 15.75V17.25C8.25 17.664 8.586 18 9 18C9.414 18 9.75 17.664 9.75 17.25V15.75C9.75 15.336 9.414 15 9 15Z" fill="white"/>
<path d="M15.3641 14.3036L14.3036 13.2431C14.0111 12.9502 13.5356 12.9502 13.2431 13.2431C12.9502 13.536 12.9502 14.0107 13.2431 14.3036L14.3036 15.3641C14.4498 15.5107 14.6418 15.5838 14.8338 15.5838C15.0258 15.5838 15.2178 15.5107 15.3641 15.3641C15.657 15.0712 15.657 14.5965 15.3641 14.3036Z" fill="white"/>
<path d="M17.25 8.25H15.75C15.336 8.25 15 8.586 15 9C15 9.414 15.336 9.75 15.75 9.75H17.25C17.664 9.75 18 9.414 18 9C18 8.586 17.664 8.25 17.25 8.25Z" fill="white"/>
<path d="M15.3641 2.63665C15.0716 2.34377 14.5961 2.34377 14.3036 2.63665L13.2431 3.69715C12.9502 3.99002 12.9502 4.46477 13.2431 4.75765C13.3893 4.90427 13.5813 4.9774 13.7733 4.9774C13.9653 4.9774 14.1573 4.90427 14.3036 4.75765L15.3641 3.69715C15.657 3.40427 15.657 2.92952 15.3641 2.63665Z" fill="white"/>
<path d="M9 0C8.586 0 8.25 0.336 8.25 0.75V2.25C8.25 2.664 8.586 3 9 3C9.414 3 9.75 2.664 9.75 2.25V0.75C9.75 0.336 9.414 0 9 0Z" fill="white"/>
<path d="M9 4.125C6.312 4.125 4.125 6.312 4.125 9C4.125 11.688 6.312 13.875 9 13.875C11.688 13.875 13.875 11.688 13.875 9C13.875 6.312 11.688 4.125 9 4.125ZM9 12.375C7.13925 12.375 5.625 10.8607 5.625 9C5.625 7.13925 7.13925 5.625 9 5.625C10.8608 5.625 12.375 7.13925 12.375 9C12.375 10.8607 10.8608 12.375 9 12.375Z" fill="white"/>
</g>
<defs>
<clipPath id="clip0_765_3422">
<rect width="18" height="18" fill="white"/>
</clipPath>
</defs>
</svg>
