<svg width="28" height="28" viewBox="0 0 28 28" fill="none" xmlns="http://www.w3.org/2000/svg">
<path d="M3.5 14C3.5 10.4888 3.5 8.73327 4.34265 7.47215C4.70744 6.9262 5.1762 6.45744 5.72215 6.09265C6.98327 5.25 8.73884 5.25 12.25 5.25H15.75C19.2612 5.25 21.0167 5.25 22.2779 6.09265C22.8238 6.45744 23.2926 6.9262 23.6573 7.47215C24.5 8.73327 24.5 10.4888 24.5 14C24.5 17.5112 24.5 19.2667 23.6573 20.5279C23.2926 21.0738 22.8238 21.5426 22.2779 21.9073C21.0167 22.75 19.2612 22.75 15.75 22.75H12.25C8.73884 22.75 6.98327 22.75 5.72215 21.9073C5.1762 21.5426 4.70744 21.0738 4.34265 20.5279C3.5 19.2667 3.5 17.5112 3.5 14Z" stroke="black" stroke-width="1.5" stroke-linejoin="round"/>
<path d="M20.7808 11.2999C20.455 11.5557 20.3982 12.0271 20.654 12.3529C20.9098 12.6787 21.3812 12.7355 21.707 12.4798L21.2439 11.8898L20.7808 11.2999ZM18.0094 15.3324C18.3363 15.0781 18.3952 14.6069 18.1409 14.28C17.8866 13.953 17.4154 13.8941 17.0884 14.1484L17.5489 14.7404L18.0094 15.3324ZM11.3533 15.4066L10.9561 16.0428L11.3533 15.4066ZM16.6495 15.4065L17.0468 16.0426L16.6495 15.4065ZM3.50098 9.33301L3.04053 9.92503L9.99347 15.3326L10.4539 14.7406L10.9144 14.1486L3.96142 8.74098L3.50098 9.33301ZM21.2439 11.8898L21.707 12.4798L24.9641 9.92295L24.501 9.33301L24.0379 8.74307L20.7808 11.2999L21.2439 11.8898ZM10.4539 14.7406L9.99347 15.3326C10.4338 15.6751 10.697 15.881 10.9561 16.0428L11.3533 15.4066L11.7505 14.7704C11.5729 14.6595 11.382 14.5123 10.9144 14.1486L10.4539 14.7406ZM17.5489 14.7404L17.0884 14.1484C16.6208 14.5122 16.4299 14.6594 16.2523 14.7703L16.6495 15.4065L17.0468 16.0426C17.3059 15.8808 17.569 15.6749 18.0094 15.3324L17.5489 14.7404ZM11.3533 15.4066L10.9561 16.0428C12.8196 17.2063 15.1833 17.2062 17.0468 16.0426L16.6495 15.4065L16.2523 14.7703C14.8749 15.6303 13.1279 15.6304 11.7505 14.7704L11.3533 15.4066Z" fill="black"/>
</svg>
