<svg width="28" height="28" viewBox="0 0 28 28" fill="none" xmlns="http://www.w3.org/2000/svg">
<path d="M16.3333 16.3333H11.6667M16.3333 16.3333V20.4975C16.3333 23.0056 16.3333 24.2597 15.7533 24.628C15.5756 24.7408 15.3723 24.8069 15.1622 24.8202C14.4765 24.8635 13.7389 23.8493 12.2637 21.8209L12.0109 21.4734C11.8594 21.265 11.7836 21.1607 11.737 21.0432C11.7215 21.0042 11.7086 20.9643 11.6981 20.9237C11.6667 20.8012 11.6667 20.6724 11.6667 20.4147V16.3333M16.3333 16.3333L18.0833 13.5833M11.6667 16.3333L7.02084 9.03275C5.65149 6.88091 4.96682 5.805 5.22588 4.93139C5.30722 4.6571 5.44645 4.40346 5.63419 4.18758C6.23214 3.5 7.50743 3.5 10.058 3.5H17.9375C20.4894 3.5 21.7653 3.5 22.3633 4.18766C22.5511 4.40361 22.6902 4.65718 22.7716 4.93155C23.0306 5.80524 22.3451 6.88211 20.9741 9.03586C20.8582 9.21792 20.7461 9.39403 20.6392 9.56212C20.6216 9.58977 20.5868 9.64443 20.5868 9.64443" stroke="black" stroke-width="1.5" stroke-linecap="round" stroke-linejoin="round"/>
</svg>
