<svg width="12" height="12" viewBox="0 0 12 12" fill="none" xmlns="http://www.w3.org/2000/svg">
<path d="M6 1.125C8.67342 1.125 10.9233 3.29619 10.3682 6.07324C10.0936 7.44624 9.01504 8.70335 8.06836 9.58691C7.58698 10.0362 7.12221 10.4042 6.77832 10.6602C6.31988 11.0012 5.68009 11.0012 5.22168 10.6602C4.87779 10.4042 4.41304 10.0362 3.93164 9.58691C2.98498 8.70335 1.90745 7.44623 1.63281 6.07324C1.07743 3.29611 3.32659 1.12503 6 1.125ZM6 3.8252C5.0335 3.8252 4.25 4.6087 4.25 5.5752C4.2501 6.54161 5.03356 7.3252 6 7.3252C6.96643 7.32519 7.7499 6.54161 7.75 5.5752C7.75 4.6087 6.9665 3.8252 6 3.8252Z" fill="white"/>
</svg>
