<svg width="28" height="28" viewBox="0 0 28 28" fill="none" xmlns="http://www.w3.org/2000/svg">
<path d="M17.5316 22.3609C16.9392 22.8822 16.3737 23.3426 15.8757 23.7295C15.1582 24.2868 14.7994 24.5655 14.2632 24.6368C14.112 24.6569 13.8875 24.6569 13.7363 24.6368C13.2001 24.5656 12.8418 24.2873 12.1251 23.7306C9.64034 21.8005 5.47448 18.0402 4.66632 14C3.49947 8.16667 8.20067 3.5 13.9997 3.5C19.7986 3.5 24.4995 8.16667 23.333 14C22.9802 15.7641 21.9872 17.4748 20.7735 19.0031M17.4995 13.0083C17.4995 14.9413 15.9325 16.5083 13.9995 16.5083C12.0665 16.5083 10.4995 14.9413 10.4995 13.0083C10.4995 11.0753 12.0665 9.50833 13.9995 9.50833C15.9325 9.50833 17.4995 11.0753 17.4995 13.0083Z" stroke="black" stroke-width="1.5" stroke-linecap="round" stroke-linejoin="round"/>
</svg>
