<svg width="32" height="32" viewBox="0 0 32 32" fill="none" xmlns="http://www.w3.org/2000/svg">
<path d="M4 12V11.2C4 8.20021 4 6.70032 4.76393 5.64886C5.01065 5.30928 5.30928 5.01065 5.64886 4.76393C6.70032 4 8.20021 4 11.2 4H11.9867H12M28 12V7.33333M20 4H20.0133H24.6667M4 20V20.8C4 23.7998 4 25.2997 4.76393 26.3511C5.01065 26.6907 5.30928 26.9894 5.64886 27.2361C6.70032 28 8.20021 28 11.2 28H11.9867H12M28 20V20.8C28 23.7998 28 25.2997 27.2361 26.3511C26.9894 26.6907 26.6907 26.9894 26.3511 27.2361C25.2997 28 23.7998 28 20.8 28H20.0133H20" stroke="black" stroke-width="1.5" stroke-linecap="round" stroke-linejoin="round"/>
</svg>
