<svg width="18" height="18" viewBox="0 0 18 18" fill="none" xmlns="http://www.w3.org/2000/svg">
<g clip-path="url(#clip0_765_3741)">
<path d="M13.9504 12.6739C13.7563 12.5346 13.4927 12.5431 13.3081 12.6949C11.0748 14.5304 7.76585 14.4025 5.68179 12.3185C3.60061 10.2374 3.46698 6.92903 5.30537 4.69232C5.45711 4.50771 5.46572 4.24411 5.3264 4.04997C5.18704 3.85581 4.93462 3.77966 4.71113 3.86435C3.74257 4.23135 2.87762 4.79131 2.14036 5.52861C-0.71067 8.3794 -0.716224 13.0037 2.14033 15.8601C4.99094 18.7108 9.61546 18.7165 12.4718 15.8601C13.209 15.1229 13.7689 14.2579 14.136 13.2892C14.2208 13.0657 14.1446 12.8132 13.9504 12.6739ZM11.7261 15.1144C9.3007 17.5398 5.34246 17.5708 2.88617 15.1143C0.46833 12.6967 0.422381 8.73796 2.88617 6.27442C3.06599 6.09459 3.25467 5.92707 3.45169 5.77224C2.91812 7.09447 2.26105 10.3894 4.93606 13.0643C7.60772 15.7359 10.8997 15.0848 12.2284 14.5485C12.0735 14.7457 11.906 14.9345 11.7261 15.1144Z" fill="white"/>
<path d="M6.00953 7.8057C6.12403 7.84388 6.7283 7.98995 7.24334 8.49705C7.75046 9.01208 7.89654 9.61635 7.93468 9.73085C8.0063 9.94643 8.20795 10.0919 8.43513 10.0919C8.66231 10.0919 8.86397 9.94643 8.93558 9.73085C8.97376 9.61635 9.11984 9.01208 9.62693 8.49705C10.142 7.98992 10.7462 7.84388 10.8607 7.8057C11.0763 7.73409 11.2218 7.53243 11.2218 7.30525C11.2218 7.07807 11.0763 6.87641 10.8607 6.8048C10.7462 6.76662 10.142 6.62055 9.62693 6.11345C9.1198 5.59841 8.97373 4.99415 8.93558 4.87964C8.86397 4.66407 8.66231 4.51855 8.43513 4.51855C8.20795 4.51855 8.0063 4.66407 7.93468 4.87964C7.8965 4.99415 7.75043 5.59841 7.24334 6.11345C6.7283 6.62058 6.12403 6.76662 6.00953 6.8048C5.79395 6.87641 5.64844 7.07807 5.64844 7.30525C5.64844 7.53243 5.79395 7.73409 6.00953 7.8057ZM8.43513 6.31198C8.69761 6.70446 9.03595 7.04281 9.42837 7.30525C9.03581 7.56776 8.69761 7.906 8.4351 8.29855C8.17266 7.90607 7.83435 7.56776 7.4419 7.30528C7.83445 7.04277 8.17266 6.70453 8.43513 6.31198Z" fill="white"/>
<path d="M10.529 3.28714C10.6435 3.32532 11.2478 3.4714 11.7628 3.97849C12.27 4.49353 12.416 5.0978 12.4542 5.2123C12.5258 5.42788 12.7274 5.57339 12.9546 5.57339C13.1818 5.57339 13.3835 5.42788 13.4551 5.2123C13.4933 5.0978 13.6393 4.49353 14.1464 3.97849C14.6615 3.47136 15.2657 3.32532 15.3802 3.28714C15.5958 3.21553 15.7413 3.01388 15.7413 2.7867C15.7413 2.55952 15.5958 2.35786 15.3802 2.28625C15.2657 2.24807 14.6615 2.10199 14.1464 1.5949C13.6393 1.07986 13.4932 0.475594 13.4551 0.36109C13.3835 0.145512 13.1818 0 12.9547 0C12.7275 0 12.5258 0.145512 12.4542 0.36109C12.416 0.475594 12.27 1.07986 11.7629 1.5949C11.2478 2.10203 10.6436 2.24807 10.5291 2.28625C10.3135 2.35786 10.168 2.55952 10.168 2.7867C10.168 3.01388 10.3134 3.21553 10.529 3.28714ZM12.9547 1.79339C13.2171 2.18588 13.5555 2.52422 13.9479 2.78666C13.5553 3.04917 13.2171 3.38741 12.9546 3.77997C12.6922 3.38748 12.3539 3.04917 11.9614 2.7867C12.3539 2.52422 12.6922 2.18595 12.9547 1.79339Z" fill="white"/>
<path d="M17.6381 8.49914C17.5236 8.46096 16.9193 8.31488 16.4043 7.80779C15.8971 7.29275 15.7511 6.68848 15.7129 6.57398C15.6413 6.3584 15.4397 6.21289 15.2125 6.21289C14.9853 6.21289 14.7836 6.3584 14.712 6.57398C14.6739 6.68848 14.5278 7.29275 14.0207 7.80779C13.5056 8.31492 12.9014 8.46096 12.7869 8.49914C12.5713 8.57075 12.4258 8.77241 12.4258 8.99958C12.4258 9.22676 12.5713 9.42842 12.7869 9.50003C12.9014 9.53821 13.5056 9.68429 14.0207 10.1914C14.5278 10.7064 14.6739 11.3107 14.712 11.4252C14.7836 11.6408 14.9853 11.7863 15.2125 11.7863C15.4397 11.7863 15.6413 11.6408 15.7129 11.4252C15.7511 11.3107 15.8972 10.7064 16.4043 10.1914C16.9193 9.68425 17.5236 9.53821 17.6381 9.50003C17.8537 9.42842 17.9992 9.22676 17.9992 8.99958C17.9992 8.77241 17.8537 8.57075 17.6381 8.49914ZM15.2124 9.99285C14.95 9.60037 14.6117 9.26206 14.2192 8.99958C14.6118 8.73707 14.95 8.39884 15.2125 8.00628C15.475 8.39877 15.8133 8.73711 16.2057 8.99955C15.8132 9.26206 15.475 9.6003 15.2124 9.99285Z" fill="white"/>
</g>
<defs>
<clipPath id="clip0_765_3741">
<rect width="18" height="18" fill="white"/>
</clipPath>
</defs>
</svg>
