<svg width="28" height="28" viewBox="0 0 28 28" fill="none" xmlns="http://www.w3.org/2000/svg">
<path d="M12.7495 11.1252C12.3026 10.2727 11.9479 9.29285 11.6663 8.16667C10.583 12.5 8.41634 14.6667 4.08301 15.75C8.41634 16.8333 10.583 19 11.6663 23.3333C12.7497 19 14.9163 16.8333 19.2497 15.75C17.9833 15.4334 16.902 15.0243 15.9787 14.4957M15.7497 7.58333C18.083 7 19.2497 5.83333 19.833 3.5C20.4163 5.83333 21.583 7 23.9163 7.58333C21.583 8.16667 20.4163 9.33333 19.833 11.6667C19.2497 9.33333 18.083 8.16667 15.7497 7.58333ZM16.333 22.4583C17.4997 22.1667 18.083 21.5833 18.3747 20.4167C18.6663 21.5833 19.2497 22.1667 20.4163 22.4583C19.2497 22.75 18.6663 23.3333 18.3747 24.5C18.083 23.3333 17.4997 22.75 16.333 22.4583Z" stroke="black" stroke-width="1.5" stroke-linecap="round" stroke-linejoin="round"/>
</svg>
