<svg width="36" height="36" viewBox="0 0 36 36" fill="none" xmlns="http://www.w3.org/2000/svg">
<rect x="0.65" y="0.65" width="34.7" height="34.7" rx="17.35" fill="#F0C9FF"/>
<rect x="0.65" y="0.65" width="34.7" height="34.7" rx="17.35" stroke="black" stroke-width="1.3"/>
<path d="M15 8.25H14.25C8.86522 8.25 4.5 12.6152 4.5 18C4.5 23.3848 8.86522 27.75 14.25 27.75L21.75 27.75C27.1348 27.75 31.5 23.3848 31.5 18C31.5 12.6152 27.1348 8.25 21.75 8.25H21M14.25 22.5C11.7647 22.5 9.75 20.4853 9.75 18C9.75 15.5147 11.7647 13.5 14.25 13.5C16.7353 13.5 18.75 15.5147 18.75 18C18.75 20.4853 16.7353 22.5 14.25 22.5Z" stroke="black" stroke-width="1.5" stroke-linecap="round" stroke-linejoin="round"/>
</svg>
